<svg width="26" height="26" viewBox="0 0 26 26" fill="none" xmlns="http://www.w3.org/2000/svg">
<g clip-path="url(#clip0_4_19)">
<path fill-rule="evenodd" clip-rule="evenodd" d="M2.16666 5.41667C2.16666 4.84203 2.39493 4.29093 2.80126 3.8846C3.20759 3.47827 3.75869 3.25 4.33332 3.25H10.3133C10.6381 3.25004 10.9587 3.32308 11.2514 3.46372C11.5441 3.60436 11.8014 3.80899 12.0044 4.0625L13.5211 5.95833H21.6667C22.2413 5.95833 22.7924 6.18661 23.1987 6.59294C23.6051 6.99926 23.8333 7.55036 23.8333 8.125V20.5833C23.8333 21.158 23.6051 21.7091 23.1987 22.1154C22.7924 22.5217 22.2413 22.75 21.6667 22.75H4.33332C3.75869 22.75 3.20759 22.5217 2.80126 22.1154C2.39493 21.7091 2.16666 21.158 2.16666 20.5833V5.41667ZM13 9.75C13.2873 9.75 13.5629 9.86414 13.766 10.0673C13.9692 10.2705 14.0833 10.546 14.0833 10.8333V13H16.25C16.5373 13 16.8129 13.1141 17.016 13.3173C17.2192 13.5205 17.3333 13.796 17.3333 14.0833C17.3333 14.3707 17.2192 14.6462 17.016 14.8494C16.8129 15.0525 16.5373 15.1667 16.25 15.1667H14.0833V17.3333C14.0833 17.6207 13.9692 17.8962 13.766 18.0994C13.5629 18.3025 13.2873 18.4167 13 18.4167C12.7127 18.4167 12.4371 18.3025 12.234 18.0994C12.0308 17.8962 11.9167 17.6207 11.9167 17.3333V15.1667H9.74999C9.46267 15.1667 9.18712 15.0525 8.98396 14.8494C8.78079 14.6462 8.66666 14.3707 8.66666 14.0833C8.66666 13.796 8.78079 13.5205 8.98396 13.3173C9.18712 13.1141 9.46267 13 9.74999 13H11.9167V10.8333C11.9167 10.546 12.0308 10.2705 12.234 10.0673C12.4371 9.86414 12.7127 9.75 13 9.75Z" fill="#626466"/>
</g>
<defs>
<clipPath id="clip0_4_19">
<rect width="26" height="26" fill="white"/>
</clipPath>
</defs>
</svg>
