<svg width="26" height="26" viewBox="0 0 26 26" fill="none" xmlns="http://www.w3.org/2000/svg">
<path d="M11.9167 19.5H14.0833V16.25H17.3333V14.0833H14.0833V10.8333H11.9167V14.0833H8.66668V16.25H11.9167V19.5ZM6.50001 23.8333C5.90418 23.8333 5.39393 23.621 4.96926 23.1963C4.5446 22.7717 4.33262 22.2618 4.33335 21.6667V4.33334C4.33335 3.73751 4.54568 3.22726 4.97035 2.80259C5.39501 2.37792 5.9049 2.16595 6.50001 2.16667H15.1667L21.6667 8.66667V21.6667C21.6667 22.2625 21.4543 22.7728 21.0297 23.1974C20.605 23.6221 20.0951 23.8341 19.5 23.8333H6.50001ZM14.0833 9.75001V4.33334H6.50001V21.6667H19.5V9.75001H14.0833Z" fill="#626466"/>
</svg>
