<svg width="28" height="28" viewBox="0 0 28 28" fill="none" xmlns="http://www.w3.org/2000/svg">
<path d="M24.5 14C24.1906 14 23.8938 14.1229 23.675 14.3417C23.4562 14.5605 23.3333 14.8572 23.3333 15.1667V22.1667C23.3333 22.4761 23.2104 22.7728 22.9916 22.9916C22.7728 23.2104 22.4761 23.3333 22.1666 23.3333H5.83331C5.52389 23.3333 5.22715 23.2104 5.00836 22.9916C4.78956 22.7728 4.66665 22.4761 4.66665 22.1667V5.83333C4.66665 5.52391 4.78956 5.22717 5.00836 5.00838C5.22715 4.78958 5.52389 4.66667 5.83331 4.66667H12.8333C13.1427 4.66667 13.4395 4.54375 13.6583 4.32496C13.8771 4.10617 14 3.80942 14 3.5C14 3.19058 13.8771 2.89383 13.6583 2.67504C13.4395 2.45625 13.1427 2.33333 12.8333 2.33333H5.83331C4.90506 2.33333 4.01482 2.70208 3.35844 3.35846C2.70206 4.01484 2.33331 4.90508 2.33331 5.83333V22.1667C2.33331 23.0949 2.70206 23.9852 3.35844 24.6415C4.01482 25.2979 4.90506 25.6667 5.83331 25.6667H22.1666C23.0949 25.6667 23.9851 25.2979 24.6415 24.6415C25.2979 23.9852 25.6666 23.0949 25.6666 22.1667V15.1667C25.6666 14.8572 25.5437 14.5605 25.3249 14.3417C25.1061 14.1229 24.8094 14 24.5 14ZM6.99998 14.8867V19.8333C6.99998 20.1428 7.1229 20.4395 7.34169 20.6583C7.56048 20.8771 7.85723 21 8.16665 21H13.1133C13.2669 21.0009 13.4191 20.9715 13.5612 20.9134C13.7033 20.8553 13.8326 20.7698 13.9416 20.6617L22.015 12.5767L25.3283 9.33333C25.4377 9.22488 25.5245 9.09584 25.5837 8.95367C25.6429 8.8115 25.6734 8.65901 25.6734 8.505C25.6734 8.35099 25.6429 8.1985 25.5837 8.05633C25.5245 7.91416 25.4377 7.78512 25.3283 7.67667L20.3816 2.67167C20.2732 2.56232 20.1442 2.47552 20.002 2.41629C19.8598 2.35706 19.7073 2.32657 19.5533 2.32657C19.3993 2.32657 19.2468 2.35706 19.1046 2.41629C18.9625 2.47552 18.8334 2.56232 18.725 2.67167L15.435 5.97333L7.33831 14.0583C7.23018 14.1673 7.14464 14.2966 7.08658 14.4388C7.02852 14.5809 6.99909 14.7331 6.99998 14.8867ZM19.5533 5.145L22.855 8.44667L21.1983 10.1033L17.8966 6.80167L19.5533 5.145ZM9.33331 15.365L16.2516 8.44667L19.5533 11.7483L12.635 18.6667H9.33331V15.365Z" fill="#626466"/>
</svg>
