<svg width="14" height="14" viewBox="0 0 14 14" fill="none" xmlns="http://www.w3.org/2000/svg">
<path d="M12.5685 4.63138C12.4044 4.46734 12.1819 4.37519 11.9499 4.37519C11.7178 4.37519 11.4953 4.46734 11.3312 4.63138L6.99999 8.96263L2.66874 4.63138C2.50371 4.47199 2.28268 4.3838 2.05326 4.38579C1.82384 4.38778 1.60438 4.47981 1.44215 4.64204C1.27991 4.80427 1.18789 5.02373 1.1859 5.25315C1.18391 5.48257 1.2721 5.7036 1.43149 5.86863L6.38136 10.8185C6.54545 10.9825 6.76797 11.0747 6.99999 11.0747C7.23201 11.0747 7.45453 10.9825 7.61861 10.8185L12.5685 5.86863C12.7325 5.70454 12.8247 5.48202 12.8247 5.25C12.8247 5.01798 12.7325 4.79547 12.5685 4.63138Z" fill="#626466"/>
</svg>
