<svg width="14" height="14" viewBox="0 0 14 14" fill="none" xmlns="http://www.w3.org/2000/svg">
<path d="M4.63136 1.4315C4.46733 1.59558 4.37518 1.8181 4.37518 2.05012C4.37518 2.28214 4.46733 2.50466 4.63136 2.66875L8.96261 7L4.63136 11.3312C4.47198 11.4963 4.38378 11.7173 4.38577 11.9467C4.38777 12.1761 4.47979 12.3956 4.64202 12.5578C4.80425 12.7201 5.02372 12.8121 5.25314 12.8141C5.48256 12.8161 5.70359 12.7279 5.86861 12.5685L10.8185 7.61862C10.9825 7.45453 11.0747 7.23202 11.0747 7C11.0747 6.76798 10.9825 6.54546 10.8185 6.38137L5.86861 1.4315C5.70453 1.26746 5.48201 1.17531 5.24999 1.17531C5.01797 1.17531 4.79545 1.26746 4.63136 1.4315Z" fill="#626466"/>
</svg>
