<svg width="28" height="28" viewBox="0 0 28 28" fill="none" xmlns="http://www.w3.org/2000/svg">
<path d="M4.20003 26.6667C3.43003 26.6667 2.77063 26.4053 2.22183 25.8827C1.67303 25.36 1.39909 24.7325 1.40003 24V5.33334C1.40003 4.60001 1.67443 3.97201 2.22323 3.44934C2.77203 2.92667 3.43096 2.66579 4.20003 2.66667H23.8C24.57 2.66667 25.2294 2.92801 25.7782 3.45067C26.327 3.97334 26.601 4.6009 26.6 5.33334V24C26.6 24.7333 26.3256 25.3613 25.7768 25.884C25.228 26.4067 24.5691 26.6676 23.8 26.6667H4.20003ZM4.20003 24H23.8V8.00001H4.20003V24ZM14 21.3333C12.0867 21.3333 10.3773 20.8387 8.87183 19.8493C7.36636 18.86 6.27576 17.5769 5.60003 16C6.27669 14.4222 7.36729 13.1387 8.87183 12.1493C10.3764 11.16 12.0858 10.6658 14 10.6667C15.9134 10.6667 17.6228 11.1613 19.1282 12.1507C20.6337 13.14 21.7243 14.4231 22.4 16C21.7234 17.5778 20.6328 18.8613 19.1282 19.8507C17.6237 20.84 15.9143 21.3342 14 21.3333ZM14 18C13.4167 18 12.9206 17.8053 12.5118 17.416C12.103 17.0267 11.8991 16.5547 11.9 16C11.9 15.4445 12.1044 14.972 12.5132 14.5827C12.922 14.1933 13.4176 13.9991 14 14C14.5834 14 15.0794 14.1947 15.4882 14.584C15.897 14.9733 16.101 15.4453 16.1 16C16.1 16.5556 15.8956 17.028 15.4868 17.4173C15.078 17.8067 14.5824 18.0009 14 18ZM14 19.3333C14.98 19.3333 15.8084 19.0111 16.485 18.3667C17.1617 17.7222 17.5 16.9333 17.5 16C17.5 15.0667 17.1617 14.2778 16.485 13.6333C15.8084 12.9889 14.98 12.6667 14 12.6667C13.02 12.6667 12.1917 12.9889 11.515 13.6333C10.8384 14.2778 10.5 15.0667 10.5 16C10.5 16.9333 10.8384 17.7222 11.515 18.3667C12.1917 19.0111 13.02 19.3333 14 19.3333Z" fill="#626466"/>
</svg>
