<svg width="29" height="23" viewBox="0 0 29 23" fill="none" xmlns="http://www.w3.org/2000/svg">
<path d="M3.22222 16.3421H11.6806C12.4559 16.3421 13.0903 15.7066 13.0903 14.9298C13.0903 14.1531 12.4559 13.5176 11.6806 13.5176H3.22222C2.44687 13.5176 1.8125 14.1531 1.8125 14.9298C1.8125 15.7066 2.44687 16.3421 3.22222 16.3421ZM3.22222 21.9912H11.6806C12.4559 21.9912 13.0903 21.3557 13.0903 20.579C13.0903 19.8022 12.4559 19.1667 11.6806 19.1667H3.22222C2.44687 19.1667 1.8125 19.8022 1.8125 20.579C1.8125 21.3557 2.44687 21.9912 3.22222 21.9912ZM3.22222 10.693H11.6806C12.4559 10.693 13.0903 10.0575 13.0903 9.28072C13.0903 8.50396 12.4559 7.86844 11.6806 7.86844H3.22222C2.44687 7.86844 1.8125 8.50396 1.8125 9.28072C1.8125 10.0575 2.44687 10.693 3.22222 10.693ZM1.8125 3.6316C1.8125 4.40835 2.44687 5.04388 3.22222 5.04388H11.6806C12.4559 5.04388 13.0903 4.40835 13.0903 3.6316C13.0903 2.85484 12.4559 2.21931 11.6806 2.21931H3.22222C2.44687 2.21931 1.8125 2.85484 1.8125 3.6316ZM17.3194 2.21931H25.7778C26.5531 2.21931 27.1875 2.85484 27.1875 3.6316V20.579C27.1875 21.3557 26.5531 21.9912 25.7778 21.9912H17.3194C16.5441 21.9912 15.9097 21.3557 15.9097 20.579V3.6316C15.9097 2.85484 16.5441 2.21931 17.3194 2.21931Z" fill="#626466"/>
</svg>
